<svg xmlns="http://www.w3.org/2000/svg" xmlns:xlink="http://www.w3.org/1999/xlink" width="500" viewBox="0 0 375 374.999991" height="500" preserveAspectRatio="xMidYMid meet"><defs><clipPath id="83b35a895c"><path d="M 65 333 L 71 333 L 71 355.960938 L 65 355.960938 Z M 65 333 " clip-rule="nonzero"></path></clipPath><clipPath id="4d3308e0fb"><path d="M 226 307 L 280.757812 307 L 280.757812 335 L 226 335 Z M 226 307 " clip-rule="nonzero"></path></clipPath><clipPath id="ff28b80c42"><path d="M 313 235 L 350 235 L 350 275.859375 L 313 275.859375 Z M 313 235 " clip-rule="nonzero"></path></clipPath><clipPath id="a06e8dcd95"><path d="M 126 212.859375 L 302 212.859375 L 302 275.859375 L 126 275.859375 Z M 126 212.859375 " clip-rule="nonzero"></path></clipPath><clipPath id="b320f46165"><path d="M 173 235 L 288 235 L 288 275.859375 L 173 275.859375 Z M 173 235 " clip-rule="nonzero"></path></clipPath><clipPath id="7ce9013d73"><path d="M 155.253906 134.707031 L 219.753906 134.707031 L 219.753906 205.957031 L 155.253906 205.957031 Z M 155.253906 134.707031 " clip-rule="nonzero"></path></clipPath><clipPath id="493e418209"><path d="M 37.5 41 L 157 41 L 157 124 L 37.5 124 Z M 37.5 41 " clip-rule="nonzero"></path></clipPath><clipPath id="2d4163ecd9"><path d="M 37.5 37.5 L 139 37.5 L 139 127.5 L 37.5 127.5 Z M 37.5 37.5 " clip-rule="nonzero"></path></clipPath></defs><path fill="#599636" d="M 67.167969 266.300781 L 69.570312 270.8125 C 70.09375 271.628906 70.699219 272.378906 71.386719 273.066406 C 73.398438 275.074219 75.316406 277.179688 77.03125 279.4375 C 81.105469 284.777344 83.855469 290.707031 85.820312 297.128906 C 87 301.050781 87.636719 305.066406 87.6875 309.132812 C 87.886719 321.285156 83.707031 331.722656 75.261719 340.398438 C 73.890625 341.777344 72.417969 343.035156 70.84375 344.171875 C 70.007812 344.171875 69.617188 343.511719 69.273438 342.945312 C 68.609375 341.847656 68.238281 340.640625 68.042969 339.417969 C 67.75 337.949219 67.550781 336.480469 67.652344 334.957031 L 67.652344 334.273438 C 67.601562 334.125 66.867188 266.648438 67.160156 266.304688 Z M 67.167969 266.300781 " fill-opacity="1" fill-rule="nonzero"></path><path fill="#6cac48" d="M 67.167969 266.15625 C 67.066406 265.957031 66.96875 266.109375 66.871094 266.203125 C 66.917969 267.183594 66.574219 268.066406 66.03125 268.898438 C 65.445312 269.734375 64.65625 270.371094 63.871094 271.054688 C 59.5 274.832031 56.066406 279.386719 53.3125 284.484375 C 49.679688 291.34375 47.765625 298.695312 47.226562 306.4375 C 46.984375 309.234375 48.109375 319.082031 48.996094 321.921875 C 51.398438 329.46875 55.722656 335.789062 61.34375 341.277344 C 62.71875 342.597656 64.195312 343.828125 65.714844 345 C 66.15625 345 66.207031 344.609375 66.304688 344.316406 C 66.496094 343.6875 66.644531 343.050781 66.746094 342.402344 C 67.1875 339.953125 67.433594 337.503906 67.726562 335.054688 L 67.1875 266.15625 Z M 67.167969 266.15625 " fill-opacity="1" fill-rule="nonzero"></path><g clip-path="url(#83b35a895c)"><path fill="#c2bfbf" d="M 69.578125 347.160156 C 69.675781 346.035156 70.238281 345.101562 70.804688 344.171875 C 70.214844 343.929688 69.773438 343.4375 69.429688 342.894531 C 69.132812 342.40625 68.886719 341.796875 68.691406 341.277344 C 68.003906 339.222656 67.855469 337.0625 67.660156 334.957031 L 67.660156 333.679688 C 67.417969 333.878906 67.363281 335.542969 67.363281 335.789062 C 67.214844 338.042969 66.921875 340.25 66.484375 342.402344 C 66.335938 343.28125 66.238281 344.167969 65.699219 344.949219 C 65.699219 345.050781 65.699219 345.148438 65.746094 345.292969 C 66.628906 347.890625 66.875 350.539062 67.023438 353.234375 L 67.023438 354.210938 C 67.023438 355.386719 66.976562 355.144531 67.957031 355.53125 C 68.351562 355.679688 68.796875 355.730469 69.1875 356.023438 C 69.480469 356.023438 69.53125 355.78125 69.53125 355.582031 L 69.382812 353.964844 L 69.382812 349.457031 C 69.332031 348.671875 69.480469 347.886719 69.582031 347.152344 Z M 69.578125 347.160156 " fill-opacity="1" fill-rule="nonzero"></path></g><path fill="#47474a" d="M 106.863281 326.664062 L 106.863281 331.332031 C 106.859375 331.515625 106.871094 331.699219 106.894531 331.882812 C 106.957031 332.4375 107.296875 332.773438 107.796875 332.929688 C 108.261719 333.050781 108.734375 333.144531 109.214844 333.203125 C 109.492188 333.234375 109.585938 333.359375 109.617188 333.652344 C 109.648438 334.699219 109.554688 334.824219 108.539062 334.757812 C 106.171875 334.636719 103.800781 334.605469 101.429688 334.757812 L 101.207031 334.757812 C 100.46875 334.792969 100.40625 334.726562 100.40625 333.992188 C 100.40625 333.867188 100.4375 333.714844 100.4375 333.589844 C 100.4375 333.367188 100.589844 333.253906 100.808594 333.253906 C 101.300781 333.195312 101.761719 333.070312 102.226562 332.976562 C 102.871094 332.824219 103.238281 332.425781 103.300781 331.78125 C 103.390625 331.074219 103.390625 330.335938 103.390625 329.628906 L 103.421875 321.402344 C 103.433594 321.15625 103.378906 320.929688 103.257812 320.71875 C 103.132812 320.507812 102.964844 320.347656 102.75 320.234375 C 102.191406 319.921875 101.605469 319.679688 100.992188 319.496094 C 100.808594 319.4375 100.621094 319.40625 100.46875 319.3125 C 100.019531 319.097656 100.007812 318.699219 100.4375 318.453125 C 100.589844 318.363281 100.777344 318.296875 100.960938 318.265625 C 102.832031 317.992188 104.65625 317.53125 106.4375 316.886719 C 106.804688 316.761719 106.898438 316.796875 106.933594 317.160156 C 106.964844 317.386719 106.933594 317.65625 106.898438 317.867188 C 106.839844 318.265625 106.839844 318.664062 106.839844 319.035156 C 106.839844 319.1875 106.871094 319.34375 107.023438 319.4375 C 107.175781 319.527344 107.332031 319.4375 107.472656 319.347656 C 108.121094 318.851562 108.765625 318.394531 109.472656 317.996094 C 110.488281 317.445312 111.566406 316.953125 112.738281 316.800781 C 114.15625 316.617188 115.382812 316.984375 116.464844 317.90625 C 116.910156 318.304688 117.300781 318.753906 117.632812 319.257812 C 117.941406 319.707031 117.96875 319.714844 118.371094 319.410156 C 119.539062 318.546875 120.769531 317.78125 122.09375 317.230469 C 123.480469 316.644531 124.894531 316.554688 126.308594 317.042969 C 127.753906 317.566406 128.742188 318.578125 129.328125 319.960938 C 129.820312 321.066406 130.035156 322.207031 130.035156 323.398438 L 130.035156 331.628906 C 130.035156 332.179688 130.257812 332.527344 130.804688 332.796875 C 131.390625 333.019531 132.035156 333.132812 132.648438 333.257812 C 133.050781 333.347656 133.050781 333.347656 133.050781 333.75 C 132.988281 334.761719 132.898438 334.824219 131.910156 334.761719 C 129.441406 334.625 126.96875 334.625 124.496094 334.761719 C 124 334.792969 124 334.792969 123.972656 334.300781 L 123.972656 334.148438 C 123.941406 333.316406 123.941406 333.316406 124.746094 333.136719 L 125.542969 332.921875 C 125.824219 332.855469 126.050781 332.710938 126.230469 332.488281 C 126.40625 332.265625 126.496094 332.007812 126.5 331.722656 L 126.589844 329.421875 L 126.527344 323.402344 C 126.503906 322.863281 126.390625 322.339844 126.191406 321.835938 C 125.421875 319.964844 123.730469 319.289062 122.097656 319.472656 C 120.863281 319.597656 119.789062 320.085938 118.773438 320.796875 C 118.558594 320.949219 118.402344 321.132812 118.433594 321.441406 C 118.710938 323.40625 118.527344 325.371094 118.558594 327.335938 L 118.558594 331.605469 C 118.558594 332.375 118.867188 332.742188 119.605469 332.925781 L 121.023438 333.234375 C 121.242188 333.265625 121.363281 333.359375 121.363281 333.601562 L 121.363281 333.828125 C 121.332031 334.6875 121.273438 334.726562 120.40625 334.71875 C 117.945312 334.59375 115.484375 334.628906 113.054688 334.71875 C 112.222656 334.75 112.152344 334.65625 112.191406 333.816406 C 112.222656 333.324219 112.28125 333.296875 112.746094 333.203125 L 113.757812 333.019531 C 114.660156 332.835938 114.992188 332.5 115.050781 331.546875 L 115.140625 329.488281 L 115.082031 323.316406 C 115.019531 322.546875 114.855469 321.8125 114.433594 321.105469 C 113.820312 319.96875 112.859375 319.386719 111.539062 319.324219 C 110.21875 319.234375 109.046875 319.722656 107.9375 320.335938 C 107.167969 320.785156 106.832031 321.316406 106.890625 322.207031 L 106.890625 326.691406 Z M 164.835938 326.851562 L 164.835938 331.179688 C 164.84375 331.488281 164.863281 331.796875 164.898438 332.101562 C 164.910156 332.3125 164.988281 332.496094 165.125 332.65625 C 165.261719 332.8125 165.429688 332.917969 165.636719 332.960938 C 166.167969 333.117188 166.710938 333.210938 167.265625 333.238281 C 167.574219 333.269531 167.636719 333.390625 167.667969 333.636719 L 167.667969 333.855469 C 167.636719 334.929688 167.515625 335.050781 166.46875 334.992188 C 164.125 334.839844 161.789062 334.867188 159.453125 334.992188 L 158.550781 335.023438 C 158.367188 335.023438 158.324219 334.933594 158.273438 334.808594 C 158.183594 334.375 158.183594 333.945312 158.273438 333.515625 C 158.304688 333.332031 158.425781 333.292969 158.613281 333.242188 C 159.0625 333.179688 159.445312 333.089844 159.871094 333.015625 C 160.640625 332.832031 160.917969 332.523438 160.949219 331.726562 L 161.039062 329.148438 L 161.039062 321.59375 C 161.039062 321.039062 160.824219 320.703125 160.332031 320.457031 C 159.777344 320.148438 159.191406 319.933594 158.574219 319.71875 C 158.390625 319.65625 158.207031 319.59375 158.054688 319.503906 C 157.652344 319.226562 157.601562 318.828125 157.992188 318.519531 C 158.171875 318.375 158.375 318.292969 158.605469 318.273438 C 160.578125 317.964844 162.484375 317.535156 164.332031 316.800781 C 164.546875 316.710938 164.640625 316.769531 164.730469 316.953125 C 164.824219 317.136719 164.855469 317.351562 164.820312 317.566406 L 164.730469 319.007812 C 164.730469 319.191406 164.640625 319.457031 164.792969 319.53125 C 164.976562 319.652344 165.101562 319.378906 165.253906 319.304688 C 166.167969 318.542969 167.160156 317.90625 168.238281 317.402344 C 169.195312 316.953125 170.175781 316.664062 171.285156 316.726562 C 173.347656 316.851562 174.824219 317.898438 175.777344 319.707031 C 176.273438 320.660156 176.484375 321.703125 176.578125 322.777344 L 176.667969 325.027344 L 176.699219 331.8125 C 176.730469 332.332031 176.914062 332.671875 177.4375 332.855469 C 177.980469 333.035156 178.535156 333.171875 179.097656 333.257812 C 179.59375 333.316406 179.621094 333.410156 179.652344 333.871094 L 179.652344 334.023438 C 179.59375 335.066406 179.527344 335.097656 178.480469 335.035156 C 176.183594 334.910156 173.886719 334.910156 171.589844 335.035156 C 171.28125 335.066406 170.976562 335.035156 170.6875 335.066406 C 170.503906 335.066406 170.378906 335.035156 170.351562 334.847656 C 170.289062 334.449219 170.226562 334.050781 170.320312 333.621094 C 170.351562 333.4375 170.445312 333.34375 170.65625 333.3125 L 172.078125 333.089844 C 172.570312 332.964844 172.847656 332.636719 172.910156 332.1875 L 172.96875 331.328125 L 172.9375 324.910156 C 172.9375 324.175781 172.90625 323.4375 172.753906 322.699219 C 172.382812 321.128906 171.183594 320.003906 169.558594 319.847656 C 168.136719 319.695312 166.855469 320.0625 165.679688 320.828125 C 165.09375 321.195312 164.847656 321.71875 164.847656 322.363281 L 164.847656 327 C 164.847656 326.910156 164.847656 326.910156 164.878906 326.910156 Z M 164.835938 326.851562 " fill-opacity="1" fill-rule="nonzero"></path><g clip-path="url(#4d3308e0fb)"><path fill="#c2bfbf" d="M 254.953125 318.160156 C 254.617188 315.917969 253.785156 313.921875 252.339844 312.171875 C 251.058594 310.601562 249.476562 309.433594 247.597656 308.671875 C 245.660156 307.871094 243.597656 307.625 241.503906 307.566406 C 240.644531 307.535156 228.890625 307.71875 228.027344 307.566406 C 227.8125 307.535156 227.65625 307.597656 227.53125 307.78125 C 227.378906 308.003906 227.222656 308.242188 227.132812 308.488281 C 226.761719 309.316406 226.761719 309.253906 227.652344 309.375 C 228.390625 309.5 229.097656 309.558594 229.808594 309.777344 C 230.453125 309.992188 230.917969 310.359375 231.070312 311.066406 C 231.128906 311.402344 231.191406 322.210938 231.191406 327.25 L 231.070312 330.84375 C 231.039062 331.121094 231.007812 331.394531 230.917969 331.640625 C 230.792969 332.007812 230.578125 332.316406 230.210938 332.472656 C 229.800781 332.664062 229.367188 332.777344 228.917969 332.808594 C 228.082031 332.898438 227.960938 332.933594 227.683594 333.855469 L 227.59375 334.191406 C 227.535156 334.589844 227.5625 334.652344 227.964844 334.652344 L 237.164062 334.742188 L 240.765625 334.679688 L 243.257812 334.375 C 246.089844 333.851562 248.613281 332.683594 250.765625 330.8125 C 252.007812 329.71875 252.992188 328.425781 253.71875 326.941406 C 254.582031 325.222656 254.953125 323.347656 255.042969 321.445312 C 255.199219 320.371094 255.132812 319.265625 254.953125 318.160156 Z M 250.492188 322.519531 C 250.367188 324.484375 249.96875 326.386719 248.953125 328.105469 C 247.660156 330.347656 245.816406 331.914062 243.261719 332.464844 C 242.152344 332.691406 241.046875 332.800781 239.882812 332.648438 C 239.050781 332.558594 238.253906 332.464844 237.484375 332.1875 C 236.097656 331.695312 235.605469 330.839844 235.578125 329.492188 L 235.546875 310.976562 C 235.546875 309.871094 236.039062 309.628906 236.835938 309.597656 C 238.039062 309.507812 239.269531 309.535156 240.46875 309.65625 C 241.753906 309.78125 242.996094 310.082031 244.195312 310.554688 C 245.085938 310.925781 245.898438 311.429688 246.625 312.0625 C 248.289062 313.476562 249.394531 315.25 250.003906 317.339844 C 250.5 319.03125 250.589844 320.75 250.5 322.46875 Z M 280.527344 325.527344 C 280.527344 325.34375 280.527344 325.191406 280.496094 325.007812 C 280.21875 323.316406 279.328125 322.027344 277.945312 321.046875 C 277.050781 320.402344 276.035156 319.972656 274.988281 319.664062 C 274.804688 319.605469 274.652344 319.542969 274.46875 319.511719 C 274.5 319.359375 274.589844 319.328125 274.683594 319.296875 C 275.296875 318.988281 275.882812 318.652344 276.40625 318.191406 C 277.359375 317.394531 277.980469 316.410156 278.3125 315.210938 C 278.496094 314.566406 278.496094 313.921875 278.4375 313.246094 C 278.386719 312.445312 278.164062 311.691406 277.769531 310.992188 C 277.375 310.292969 276.847656 309.714844 276.191406 309.253906 C 274.769531 308.207031 273.113281 307.777344 271.390625 307.746094 C 268.066406 307.6875 264.714844 307.746094 261.390625 307.746094 C 260.4375 307.746094 259.484375 307.808594 258.5 307.65625 C 258.3125 307.625 258.046875 307.566406 257.914062 307.78125 C 257.6875 308.179688 257.417969 308.578125 257.328125 309.039062 C 257.296875 309.253906 257.359375 309.375 257.605469 309.40625 L 259.726562 309.714844 C 260.5625 309.839844 261.148438 310.300781 261.207031 311.035156 C 261.265625 311.546875 261.296875 312.058594 261.296875 312.570312 L 261.234375 318.3125 L 261.203125 329.671875 C 261.203125 330.347656 261.113281 330.992188 260.988281 331.667969 C 260.957031 331.886719 260.867188 332.078125 260.722656 332.246094 C 260.578125 332.414062 260.398438 332.527344 260.1875 332.589844 C 259.574219 332.773438 258.988281 332.957031 258.339844 332.957031 C 258.164062 332.941406 258 332.980469 257.851562 333.078125 C 257.699219 333.175781 257.597656 333.308594 257.542969 333.480469 C 257.417969 333.753906 257.316406 334.0625 257.265625 334.339844 C 257.203125 334.707031 257.296875 334.832031 257.664062 334.789062 C 257.941406 334.757812 268.097656 335.003906 270.003906 334.820312 C 271.144531 334.695312 272.257812 334.542969 273.390625 334.207031 C 275.324219 333.59375 277.113281 332.703125 278.527344 331.195312 C 279.699219 329.96875 280.375 328.492188 280.433594 326.773438 C 280.523438 326.375 280.523438 325.976562 280.523438 325.546875 Z M 265.605469 312.945312 L 265.695312 310.492188 C 265.695312 310.03125 265.878906 309.816406 266.339844 309.722656 C 267.078125 309.570312 267.816406 309.632812 268.558594 309.660156 C 269.296875 309.722656 270.003906 309.8125 270.742188 310.03125 C 272.09375 310.429688 273.140625 311.199219 273.757812 312.484375 C 274.042969 313.078125 274.183594 313.703125 274.1875 314.359375 C 274.21875 315.21875 274.15625 316.050781 273.820312 316.875 C 273.296875 318.011719 272.46875 318.75 271.265625 318.964844 C 270.0625 319.183594 266.648438 319.089844 266.128906 319.089844 C 265.664062 319.089844 265.632812 319.027344 265.632812 318.566406 L 265.632812 315.675781 C 265.558594 314.777344 265.550781 313.875 265.601562 312.972656 Z M 275.601562 329.464844 C 275.078125 330.847656 274.125 331.800781 272.773438 332.320312 C 272.035156 332.597656 271.292969 332.769531 270.519531 332.71875 C 269.566406 332.6875 268.613281 332.71875 267.660156 332.535156 C 266.367188 332.257812 265.78125 331.03125 265.691406 330.140625 C 265.539062 328.574219 265.628906 326.976562 265.601562 325.808594 L 265.601562 321.757812 C 265.601562 321.261719 265.660156 321.113281 266.1875 321.113281 L 269.078125 321.144531 L 271.050781 321.367188 C 272.433594 321.675781 273.695312 322.199219 274.679688 323.269531 C 275.480469 324.132812 275.914062 325.175781 276.003906 326.3125 C 276.09375 327.386719 276.035156 328.429688 275.636719 329.445312 Z M 275.601562 329.464844 " fill-opacity="1" fill-rule="nonzero"></path></g><path fill="#47474a" d="M 197.425781 320.214844 L 198.222656 320.339844 C 199.085938 320.371094 200.101562 320.0625 200.410156 318.863281 C 200.582031 318.28125 200.582031 317.695312 200.410156 317.113281 C 200.222656 317.113281 200.132812 317.265625 200.039062 317.328125 C 199.578125 317.695312 199.054688 317.914062 198.5 317.972656 C 197.394531 318.097656 196.285156 318.035156 195.210938 317.636719 L 193.699219 317.113281 C 192.640625 316.769531 191.550781 316.625 190.4375 316.6875 C 188.867188 316.8125 187.390625 317.332031 186.003906 318.070312 C 184.527344 318.867188 183.484375 320.066406 182.988281 321.695312 C 182.710938 322.648438 182.679688 323.625 182.804688 324.609375 C 183.113281 326.851562 184.28125 328.417969 186.371094 329.246094 C 186.496094 329.28125 186.589844 329.335938 186.710938 329.371094 C 186.988281 329.523438 187.019531 329.679688 186.769531 329.894531 L 186 330.414062 L 184.152344 331.550781 C 183.691406 331.828125 183.632812 332.046875 183.785156 332.53125 C 183.972656 333.117188 184.300781 333.609375 184.769531 334.007812 C 185.195312 334.371094 185.664062 334.65625 186.183594 334.867188 C 186.523438 335.019531 186.523438 335.09375 186.214844 335.363281 L 184.460938 336.621094 C 183.875 337.070312 183.289062 337.519531 182.796875 338.09375 C 182.453125 338.464844 182.214844 338.894531 182.082031 339.382812 C 181.953125 339.875 181.945312 340.363281 182.058594 340.859375 C 182.292969 341.949219 182.828125 342.871094 183.660156 343.621094 C 184.472656 344.371094 185.414062 344.882812 186.488281 345.15625 C 188.210938 345.652344 189.996094 345.675781 191.75 345.339844 C 194.273438 344.878906 196.480469 343.765625 198.214844 341.871094 C 199.414062 340.613281 200.121094 339.140625 200.183594 337.378906 C 200.21875 336.867188 200.160156 336.367188 200.019531 335.878906 C 199.875 335.386719 199.648438 334.9375 199.34375 334.527344 C 199.039062 334.117188 198.675781 333.773438 198.246094 333.492188 C 197.820312 333.210938 197.359375 333.011719 196.859375 332.894531 L 195.199219 332.585938 L 190.121094 332.136719 C 189.566406 332.105469 189.011719 332.015625 188.550781 331.738281 C 187.964844 331.367188 187.8125 330.664062 188.183594 330.203125 C 188.460938 329.867188 188.796875 329.648438 189.230469 329.617188 L 190.214844 329.527344 C 192.214844 329.324219 193.945312 328.539062 195.414062 327.164062 C 196.191406 326.445312 196.710938 325.578125 196.980469 324.554688 C 197.351562 323.234375 197.351562 321.859375 197.042969 320.507812 C 196.953125 320.171875 196.980469 320.140625 197.410156 320.203125 Z M 189.882812 335.511719 C 190.066406 335.542969 190.25 335.511719 190.4375 335.511719 C 191.730469 335.570312 193.050781 335.664062 194.3125 336.003906 C 194.726562 336.125 195.125 336.28125 195.511719 336.464844 C 196.746094 337.140625 197.207031 338.308594 197.050781 339.566406 C 196.867188 340.949219 196.097656 341.929688 194.898438 342.578125 C 194.097656 343.027344 193.203125 343.222656 192.28125 343.3125 C 191.941406 343.34375 191.632812 343.3125 191.296875 343.3125 C 190.21875 343.34375 189.171875 343.222656 188.15625 342.792969 C 187.449219 342.515625 186.863281 342.117188 186.34375 341.5625 C 185.265625 340.488281 184.765625 338.523438 186.375 336.925781 C 187.359375 336.027344 188.46875 335.390625 189.882812 335.511719 Z M 193.390625 325.929688 C 192.742188 327.554688 191.328125 328.046875 189.914062 327.832031 C 188.621094 327.648438 187.667969 326.941406 187.054688 325.773438 C 186.253906 324.207031 186.039062 322.582031 186.5 320.890625 C 186.839844 319.632812 187.609375 318.679688 188.960938 318.464844 C 190.683594 318.15625 192.339844 318.773438 193.207031 320.492188 C 193.65625 321.324219 193.855469 322.335938 193.855469 323.777344 C 193.824219 324.359375 193.699219 325.160156 193.390625 325.925781 Z M 154.621094 323.839844 C 154.34375 322.179688 153.730469 320.675781 152.589844 319.417969 C 150.898438 317.542969 148.746094 316.722656 146.3125 316.714844 C 144.191406 316.683594 142.191406 317.296875 140.40625 318.40625 C 139.527344 318.929688 138.777344 319.597656 138.152344 320.410156 C 137.53125 321.222656 137.082031 322.117188 136.804688 323.101562 C 136.28125 324.882812 136.308594 326.699219 136.714844 328.507812 C 137.789062 333.359375 141.546875 335.445312 146.035156 335.140625 C 147.359375 335.050781 148.621094 334.617188 149.820312 334.035156 C 151.605469 333.203125 152.898438 331.882812 153.789062 330.132812 C 154.496094 328.691406 154.800781 327.152344 154.773438 325.402344 L 154.621094 323.835938 Z M 150.253906 330.65625 C 150.027344 331.363281 149.628906 331.949219 149.054688 332.417969 C 148.476562 332.886719 147.820312 333.160156 147.082031 333.234375 C 145.730469 333.421875 144.464844 333.082031 143.328125 332.285156 C 142.496094 331.671875 141.851562 330.90625 141.390625 329.980469 C 140.128906 327.402344 139.914062 324.699219 140.558594 321.9375 C 140.769531 321.0625 141.199219 320.316406 141.851562 319.695312 C 142.988281 318.648438 144.3125 318.40625 145.789062 318.710938 C 147.210938 319.019531 148.28125 319.785156 149.167969 320.953125 C 150.054688 322.121094 150.460938 323.472656 150.707031 324.886719 C 150.828125 325.59375 150.828125 326.328125 150.859375 326.789062 C 150.859375 328.265625 150.734375 329.484375 150.273438 330.660156 Z M 221.855469 324.085938 C 221.628906 322.304688 220.964844 320.679688 219.699219 319.328125 C 218.039062 317.515625 215.882812 316.75 213.484375 316.71875 C 211.421875 316.683594 209.515625 317.269531 207.761719 318.28125 C 205.792969 319.453125 204.4375 321.105469 203.917969 323.351562 C 203.605469 324.574219 203.511719 325.8125 203.640625 327.070312 C 203.765625 328.324219 204.105469 329.519531 204.65625 330.65625 C 205.667969 332.808594 207.394531 334.1875 209.671875 334.800781 C 212.195312 335.476562 214.597656 335.171875 216.933594 334.035156 C 218.964844 333.050781 220.410156 331.515625 221.242188 329.425781 C 221.734375 328.199219 221.917969 326.878906 221.949219 325.34375 C 221.980469 325.066406 221.917969 324.574219 221.859375 324.085938 Z M 217.609375 330.257812 C 217.113281 331.917969 216.070312 332.992188 214.316406 333.238281 C 213.023438 333.421875 211.796875 333.113281 210.683594 332.378906 C 209.730469 331.734375 209.054688 330.871094 208.5625 329.863281 C 208.007812 328.789062 207.699219 327.652344 207.578125 326.484375 C 207.394531 325.042969 207.394531 323.628906 207.730469 322.1875 C 207.796875 321.898438 207.886719 321.625 208.007812 321.355469 C 208.871094 319.207031 210.777344 318.222656 213.023438 318.714844 C 214.53125 319.054688 215.671875 319.886719 216.53125 321.144531 C 217.367188 322.371094 217.765625 323.722656 217.949219 325.1875 C 218.042969 325.773438 218.074219 326.386719 218.042969 326.90625 C 218.042969 328.105469 217.949219 329.210938 217.589844 330.285156 Z M 217.609375 330.257812 " fill-opacity="1" fill-rule="nonzero"></path><g clip-path="url(#ff28b80c42)"><path fill="#83cd29" d="M 331.214844 235.160156 C 330.671875 235.160156 330.144531 235.273438 329.675781 235.535156 L 314.921875 244.058594 C 313.96875 244.605469 313.386719 245.644531 313.386719 246.75 L 313.386719 263.761719 C 313.386719 264.867188 313.96875 265.902344 314.921875 266.457031 L 318.777344 268.675781 C 320.648438 269.597656 321.339844 269.585938 322.191406 269.585938 C 324.960938 269.585938 326.546875 267.902344 326.546875 264.980469 L 326.546875 248.195312 C 326.546875 247.957031 326.339844 247.789062 326.105469 247.789062 L 324.257812 247.789062 C 324.023438 247.789062 323.820312 247.960938 323.820312 248.195312 L 323.820312 264.988281 C 323.820312 266.28125 322.46875 267.585938 320.28125 266.492188 L 316.273438 264.140625 C 316.132812 264.0625 316.023438 263.921875 316.023438 263.765625 L 316.023438 246.753906 C 316.023438 246.59375 316.132812 246.429688 316.273438 246.347656 L 331 237.855469 C 331.136719 237.777344 331.300781 237.777344 331.4375 237.855469 L 346.160156 246.347656 C 346.300781 246.429688 346.410156 246.589844 346.410156 246.753906 L 346.410156 263.765625 C 346.410156 263.925781 346.328125 264.09375 346.191406 264.171875 L 331.4375 272.664062 C 331.304688 272.738281 331.132812 272.738281 331 272.664062 L 327.207031 270.40625 C 327.09375 270.339844 326.941406 270.347656 326.832031 270.40625 C 325.785156 271 325.589844 271.070312 324.609375 271.410156 C 324.367188 271.492188 324 271.625 324.734375 272.035156 L 329.683594 274.953125 C 330.15625 275.226562 330.679688 275.359375 331.21875 275.359375 C 331.765625 275.359375 332.28125 275.230469 332.753906 274.953125 L 347.507812 266.464844 C 348.464844 265.90625 349.042969 264.875 349.042969 263.769531 L 349.042969 246.757812 C 349.042969 245.652344 348.464844 244.617188 347.507812 244.066406 L 332.753906 235.542969 C 332.292969 235.28125 331.761719 235.167969 331.21875 235.167969 Z M 335.160156 247.316406 C 330.957031 247.316406 328.457031 249.105469 328.457031 252.078125 C 328.457031 255.300781 330.941406 256.1875 334.972656 256.585938 C 339.796875 257.058594 340.171875 257.769531 340.171875 258.71875 C 340.171875 260.367188 338.859375 261.066406 335.753906 261.066406 C 331.855469 261.066406 331 260.09375 330.710938 258.152344 C 330.679688 257.941406 330.519531 257.773438 330.304688 257.773438 L 328.390625 257.773438 C 328.269531 257.777344 328.167969 257.820312 328.082031 257.90625 C 327.996094 257.992188 327.953125 258.09375 327.949219 258.214844 C 327.949219 260.695312 329.300781 263.632812 335.75 263.632812 C 340.421875 263.632812 343.113281 261.804688 343.113281 258.589844 C 343.113281 255.410156 340.9375 254.550781 336.410156 253.953125 C 331.835938 253.34375 331.398438 253.050781 331.398438 251.976562 C 331.398438 251.09375 331.765625 249.910156 335.15625 249.910156 C 338.183594 249.910156 339.300781 250.5625 339.761719 252.605469 C 339.800781 252.796875 339.96875 252.953125 340.167969 252.953125 L 342.085938 252.953125 C 342.203125 252.953125 342.316406 252.878906 342.398438 252.796875 C 342.476562 252.707031 342.535156 252.605469 342.523438 252.484375 C 342.226562 248.96875 339.882812 247.3125 335.160156 247.3125 Z M 335.160156 247.316406 " fill-opacity="1" fill-rule="nonzero"></path></g><g clip-path="url(#a06e8dcd95)"><path fill="#404137" d="M 244.46875 212.859375 C 244.300781 212.863281 244.144531 212.902344 244 212.988281 C 243.6875 213.167969 243.53125 213.441406 243.53125 213.800781 L 243.53125 237.765625 C 243.53125 238 243.421875 238.210938 243.21875 238.328125 C 242.996094 238.457031 242.777344 238.457031 242.558594 238.328125 L 238.644531 236.074219 C 238.351562 235.90625 238.039062 235.820312 237.703125 235.820312 C 237.367188 235.820312 237.054688 235.90625 236.761719 236.074219 L 221.132812 245.097656 C 220.546875 245.433594 220.191406 246.082031 220.191406 246.757812 L 220.191406 264.800781 C 220.191406 265.136719 220.277344 265.449219 220.445312 265.742188 C 220.613281 266.03125 220.839844 266.261719 221.132812 266.429688 L 236.765625 275.449219 C 237.054688 275.621094 237.367188 275.703125 237.703125 275.703125 C 238.039062 275.703125 238.351562 275.621094 238.644531 275.449219 L 254.277344 266.429688 C 254.566406 266.261719 254.796875 266.03125 254.964844 265.742188 C 255.132812 265.449219 255.214844 265.136719 255.214844 264.800781 L 255.214844 219.816406 C 255.214844 219.132812 254.84375 218.488281 254.246094 218.15625 L 244.941406 212.953125 C 244.792969 212.871094 244.632812 212.855469 244.46875 212.859375 Z M 143.910156 235.382812 C 143.613281 235.398438 143.332031 235.449219 143.066406 235.605469 L 127.433594 244.625 C 127.144531 244.792969 126.914062 245.023438 126.746094 245.3125 C 126.578125 245.605469 126.492188 245.917969 126.496094 246.253906 L 126.527344 270.472656 C 126.527344 270.808594 126.699219 271.121094 126.996094 271.285156 C 127.289062 271.460938 127.648438 271.460938 127.9375 271.285156 L 137.210938 265.960938 C 137.796875 265.609375 138.179688 265.003906 138.179688 264.332031 L 138.179688 253.019531 C 138.179688 252.347656 138.535156 251.726562 139.121094 251.390625 L 143.066406 249.105469 C 143.359375 248.9375 143.671875 248.851562 144.007812 248.855469 C 144.34375 248.851562 144.65625 248.9375 144.949219 249.105469 L 148.894531 251.390625 C 149.476562 251.726562 149.832031 252.34375 149.832031 253.019531 L 149.832031 264.328125 C 149.832031 265 150.222656 265.613281 150.804688 265.957031 L 160.074219 271.28125 C 160.367188 271.457031 160.726562 271.457031 161.015625 271.28125 C 161.304688 271.117188 161.484375 270.804688 161.484375 270.46875 L 161.515625 246.253906 C 161.519531 245.917969 161.4375 245.601562 161.269531 245.3125 C 161.097656 245.019531 160.871094 244.789062 160.578125 244.625 L 144.945312 235.605469 C 144.683594 235.449219 144.402344 235.398438 144.101562 235.386719 L 143.914062 235.386719 Z M 284.378906 235.605469 C 284.042969 235.601562 283.730469 235.6875 283.4375 235.855469 L 267.804688 244.878906 C 267.222656 245.214844 266.867188 245.832031 266.867188 246.503906 L 266.867188 264.550781 C 266.867188 265.226562 267.246094 265.84375 267.835938 266.179688 L 283.34375 275.015625 C 283.914062 275.34375 284.613281 275.367188 285.191406 275.046875 L 294.589844 269.816406 C 294.886719 269.648438 295.089844 269.339844 295.089844 269 C 295.089844 268.660156 294.914062 268.355469 294.621094 268.1875 L 278.894531 259.164062 C 278.597656 258.996094 278.390625 258.65625 278.390625 258.320312 L 278.390625 252.675781 C 278.390625 252.339844 278.601562 252.03125 278.894531 251.863281 L 283.78125 249.042969 C 284.070312 248.875 284.429688 248.875 284.71875 249.042969 L 289.617188 251.863281 C 289.933594 252.042969 290.089844 252.3125 290.089844 252.675781 L 290.089844 257.125 C 290.085938 257.488281 290.242188 257.757812 290.558594 257.9375 C 290.851562 258.105469 291.207031 258.109375 291.5 257.9375 L 300.863281 252.488281 C 301.445312 252.148438 301.804688 251.53125 301.804688 250.859375 L 301.804688 246.503906 C 301.804688 246.167969 301.71875 245.855469 301.550781 245.566406 C 301.382812 245.273438 301.15625 245.042969 300.863281 244.875 L 285.328125 235.855469 C 285.035156 235.6875 284.722656 235.601562 284.386719 235.601562 Z M 237.636719 249.074219 C 237.726562 249.074219 237.8125 249.09375 237.890625 249.136719 L 243.246094 252.238281 C 243.390625 252.324219 243.496094 252.476562 243.496094 252.644531 L 243.496094 258.847656 C 243.496094 259.015625 243.390625 259.171875 243.246094 259.253906 L 237.890625 262.355469 C 237.742188 262.441406 237.566406 262.441406 237.417969 262.355469 L 232.0625 259.253906 C 231.917969 259.171875 231.8125 259.015625 231.8125 258.847656 L 231.8125 252.648438 C 231.8125 252.480469 231.917969 252.324219 232.0625 252.242188 L 237.417969 249.140625 C 237.492188 249.097656 237.558594 249.078125 237.636719 249.078125 Z M 237.636719 249.074219 " fill-opacity="1" fill-rule="nonzero"></path></g><g clip-path="url(#b320f46165)"><path fill="#83cd29" d="M 190.867188 235.507812 C 190.53125 235.507812 190.21875 235.59375 189.929688 235.761719 L 174.296875 244.75 C 173.710938 245.089844 173.355469 245.738281 173.355469 246.410156 L 173.355469 264.457031 C 173.355469 264.792969 173.441406 265.105469 173.609375 265.394531 C 173.777344 265.6875 174.003906 265.917969 174.296875 266.082031 L 189.929688 275.105469 C 190.21875 275.273438 190.53125 275.359375 190.867188 275.359375 C 191.203125 275.359375 191.515625 275.273438 191.808594 275.105469 L 207.441406 266.082031 C 207.730469 265.914062 207.960938 265.6875 208.128906 265.394531 C 208.296875 265.105469 208.378906 264.789062 208.378906 264.453125 L 208.378906 246.414062 C 208.378906 245.738281 208.023438 245.089844 207.4375 244.753906 L 191.808594 235.761719 C 191.515625 235.59375 191.203125 235.507812 190.867188 235.511719 Z M 284.347656 251.613281 C 284.285156 251.613281 284.214844 251.613281 284.160156 251.640625 L 281.152344 253.398438 C 281.027344 253.464844 280.964844 253.570312 280.964844 253.710938 L 280.964844 257.15625 C 280.964844 257.285156 281.039062 257.402344 281.152344 257.46875 L 284.160156 259.191406 C 284.273438 259.261719 284.386719 259.261719 284.503906 259.191406 L 287.511719 257.46875 C 287.621094 257.40625 287.699219 257.285156 287.699219 257.15625 L 287.699219 253.710938 C 287.699219 253.582031 287.621094 253.460938 287.511719 253.394531 L 284.503906 251.640625 C 284.449219 251.609375 284.410156 251.609375 284.347656 251.609375 Z M 284.347656 251.613281 " fill-opacity="1" fill-rule="nonzero"></path></g><g clip-path="url(#7ce9013d73)"><path fill="#8cc84b" d="M 184.527344 135.65625 C 186.300781 134.648438 188.558594 134.644531 190.285156 135.65625 L 216.734375 150.601562 C 218.390625 151.53125 219.496094 153.378906 219.480469 155.292969 L 219.480469 185.257812 C 219.492188 187.246094 218.277344 189.136719 216.53125 190.050781 L 190.222656 204.925781 C 189.773438 205.175781 189.296875 205.363281 188.800781 205.484375 C 188.300781 205.605469 187.792969 205.660156 187.277344 205.644531 C 186.765625 205.628906 186.261719 205.550781 185.769531 205.398438 C 185.277344 205.25 184.816406 205.039062 184.378906 204.765625 L 176.484375 200.191406 C 175.945312 199.871094 175.339844 199.617188 174.960938 199.09375 C 175.296875 198.640625 175.894531 198.582031 176.382812 198.382812 C 177.480469 198.03125 178.484375 197.496094 179.496094 196.925781 C 179.75 196.75 180.0625 196.816406 180.308594 196.976562 L 187.039062 200.878906 C 187.519531 201.15625 188.007812 200.789062 188.417969 200.558594 L 214.25 185.945312 C 214.570312 185.789062 214.746094 185.453125 214.722656 185.101562 L 214.722656 155.425781 C 214.757812 155.027344 214.527344 154.660156 214.167969 154.5 L 187.925781 139.6875 C 187.769531 139.582031 187.597656 139.527344 187.410156 139.527344 C 187.222656 139.527344 187.050781 139.578125 186.894531 139.6875 L 160.691406 154.527344 C 160.335938 154.691406 160.09375 155.050781 160.136719 155.449219 L 160.136719 185.125 C 160.105469 185.476562 160.292969 185.808594 160.613281 185.957031 L 167.613281 189.921875 C 168.929688 190.628906 170.542969 191.03125 171.992188 190.507812 C 172.308594 190.390625 172.601562 190.222656 172.867188 190.015625 C 173.136719 189.804688 173.363281 189.5625 173.558594 189.28125 C 173.75 189.003906 173.894531 188.699219 173.996094 188.375 C 174.09375 188.050781 174.144531 187.71875 174.144531 187.382812 L 174.148438 157.882812 C 174.121094 157.445312 174.53125 157.082031 174.953125 157.128906 L 178.320312 157.128906 C 178.761719 157.117188 179.109375 157.585938 179.050781 158.027344 L 179.042969 187.710938 C 179.046875 190.347656 177.964844 193.214844 175.53125 194.511719 C 172.535156 196.0625 168.828125 195.738281 165.863281 194.246094 L 158.332031 190.070312 C 156.5625 189.183594 155.371094 187.265625 155.382812 185.277344 L 155.382812 155.3125 C 155.386719 154.824219 155.457031 154.347656 155.585938 153.878906 C 155.71875 153.410156 155.90625 152.964844 156.15625 152.546875 C 156.40625 152.128906 156.707031 151.753906 157.058594 151.414062 C 157.40625 151.078125 157.796875 150.792969 158.222656 150.558594 Z M 192.15625 156.425781 C 195.980469 156.203125 200.074219 156.28125 203.515625 158.167969 C 206.179688 159.617188 207.65625 162.652344 207.707031 165.621094 C 207.628906 166.023438 207.214844 166.242188 206.832031 166.214844 C 205.726562 166.210938 204.613281 166.230469 203.5 166.207031 C 203.03125 166.226562 202.757812 165.789062 202.699219 165.375 C 202.378906 163.953125 201.605469 162.546875 200.273438 161.863281 C 198.226562 160.835938 195.851562 160.886719 193.621094 160.90625 C 191.992188 160.996094 190.238281 161.136719 188.859375 162.09375 C 187.796875 162.824219 187.476562 164.316406 187.855469 165.472656 C 188.210938 166.324219 189.191406 166.597656 189.992188 166.847656 C 194.601562 168.058594 199.484375 167.960938 204.007812 169.527344 C 205.878906 170.175781 207.710938 171.4375 208.355469 173.402344 C 209.191406 176.035156 208.824219 179.183594 206.957031 181.292969 C 205.445312 183.035156 203.238281 183.957031 201.035156 184.496094 C 198.105469 185.148438 195.066406 185.164062 192.09375 184.871094 C 189.296875 184.554688 186.386719 183.816406 184.226562 181.90625 C 182.378906 180.300781 181.480469 177.796875 181.570312 175.382812 C 181.589844 174.972656 181.996094 174.6875 182.386719 174.722656 L 185.710938 174.722656 C 186.15625 174.691406 186.484375 175.078125 186.507812 175.5 C 186.714844 176.832031 187.21875 178.273438 188.398438 179.050781 C 190.671875 180.519531 193.519531 180.417969 196.121094 180.460938 C 198.277344 180.363281 200.695312 180.335938 202.453125 178.90625 C 203.382812 178.09375 203.65625 176.730469 203.40625 175.558594 C 203.132812 174.570312 202.078125 174.109375 201.191406 173.785156 C 196.640625 172.339844 191.703125 172.863281 187.195312 171.230469 C 185.367188 170.582031 183.597656 169.359375 182.894531 167.472656 C 181.914062 164.808594 182.363281 161.507812 184.429688 159.46875 C 186.421875 157.4375 189.347656 156.652344 192.113281 156.371094 Z M 192.15625 156.425781 " fill-opacity="1" fill-rule="nonzero"></path></g><path fill="#00d8ff" d="M 95.761719 82.421875 C 95.761719 82.988281 95.707031 83.550781 95.59375 84.105469 C 95.484375 84.664062 95.320312 85.203125 95.101562 85.726562 C 94.886719 86.25 94.621094 86.75 94.304688 87.222656 C 93.988281 87.691406 93.628906 88.128906 93.230469 88.53125 C 92.828125 88.933594 92.390625 89.289062 91.917969 89.605469 C 91.445312 89.921875 90.949219 90.1875 90.421875 90.402344 C 89.898438 90.621094 89.359375 90.785156 88.800781 90.894531 C 88.246094 91.007812 87.683594 91.0625 87.113281 91.0625 C 86.546875 91.0625 85.984375 91.007812 85.425781 90.894531 C 84.871094 90.785156 84.332031 90.621094 83.804688 90.402344 C 83.28125 90.1875 82.78125 89.921875 82.3125 89.605469 C 81.839844 89.289062 81.402344 88.933594 81 88.53125 C 80.597656 88.128906 80.242188 87.691406 79.925781 87.222656 C 79.609375 86.75 79.34375 86.25 79.125 85.726562 C 78.910156 85.203125 78.746094 84.664062 78.632812 84.105469 C 78.523438 83.550781 78.46875 82.988281 78.46875 82.421875 C 78.46875 81.851562 78.523438 81.292969 78.632812 80.734375 C 78.746094 80.179688 78.910156 79.636719 79.125 79.113281 C 79.34375 78.589844 79.609375 78.089844 79.925781 77.621094 C 80.242188 77.148438 80.597656 76.710938 81 76.308594 C 81.402344 75.910156 81.839844 75.550781 82.3125 75.234375 C 82.78125 74.921875 83.28125 74.65625 83.804688 74.4375 C 84.332031 74.21875 84.871094 74.054688 85.425781 73.945312 C 85.984375 73.835938 86.546875 73.78125 87.113281 73.78125 C 87.683594 73.78125 88.246094 73.835938 88.800781 73.945312 C 89.359375 74.054688 89.898438 74.21875 90.421875 74.4375 C 90.949219 74.65625 91.445312 74.921875 91.917969 75.234375 C 92.390625 75.550781 92.828125 75.910156 93.230469 76.308594 C 93.628906 76.710938 93.988281 77.148438 94.304688 77.621094 C 94.621094 78.089844 94.886719 78.589844 95.101562 79.113281 C 95.320312 79.636719 95.484375 80.179688 95.59375 80.734375 C 95.707031 81.292969 95.761719 81.851562 95.761719 82.421875 Z M 95.761719 82.421875 " fill-opacity="1" fill-rule="nonzero"></path><g clip-path="url(#493e418209)"><path stroke-linecap="butt" transform="matrix(0.172357, 0, 0, 0.172243, 40.659213, 41.490331)" fill="none" stroke-linejoin="miter" d="M 269.522832 135.629421 C 336.879508 135.629421 399.454132 145.290549 446.640067 161.5285 C 503.480762 181.10022 538.42827 210.763963 538.42827 237.638226 C 538.42827 265.623745 501.395696 297.124463 440.362208 317.353866 C 394.196141 332.639312 333.479945 340.622215 269.522832 340.622215 C 203.979256 340.622215 141.903235 333.138243 95.238566 317.195115 C 36.176823 297.01107 0.617394 265.079456 0.617394 237.638226 C 0.617394 210.99075 34.001103 181.553794 90.025902 162.004752 C 137.393148 145.494657 201.508907 135.629421 269.522832 135.629421 Z M 269.522832 135.629421 " stroke="#00d8ff" stroke-width="24" stroke-opacity="1" stroke-miterlimit="4"></path></g><g clip-path="url(#2d4163ecd9)"><path stroke-linecap="butt" transform="matrix(0.172357, 0, 0, 0.172243, 40.659213, 41.490331)" fill="none" stroke-linejoin="miter" d="M 180.748909 186.928647 C 214.381919 128.576345 254.020824 79.204809 291.665319 46.434084 C 337.015491 6.973141 380.167278 -8.471056 403.420289 4.932058 C 427.670505 18.924817 436.464042 66.754201 423.500375 129.732959 C 413.686969 177.358234 390.252648 233.941597 358.319419 289.345668 C 325.570295 346.13314 288.061782 396.162358 250.938554 428.615581 C 203.956592 469.664033 158.53843 484.541262 134.764152 470.820647 C 111.669787 457.530927 102.853587 413.897103 113.936163 355.590159 C 123.273629 306.309338 146.753278 245.847916 180.726245 186.928647 Z M 180.748909 186.928647 " stroke="#00d8ff" stroke-width="24" stroke-opacity="1" stroke-miterlimit="4"></path><path stroke-linecap="butt" transform="matrix(0.172357, 0, 0, 0.172243, 40.659213, 41.490331)" fill="none" stroke-linejoin="miter" d="M 180.8169 289.48174 C 147.07057 231.197474 124.089524 172.210169 114.502756 123.224171 C 102.966906 64.236865 111.125857 19.128925 134.378868 5.657776 C 158.606421 -8.357662 204.432531 7.902968 252.525017 50.606965 C 288.877678 82.878759 326.20488 131.433861 358.228764 186.769896 C 391.068543 243.51201 415.704043 300.979843 425.268148 349.353515 C 437.393256 410.563334 427.57985 457.326819 403.828237 471.092792 C 380.756535 484.427869 338.556626 470.299037 293.569075 431.586491 C 255.56196 398.883802 214.903185 348.332974 180.8169 289.459062 Z M 180.8169 289.48174 " stroke="#00d8ff" stroke-width="24" stroke-opacity="1" stroke-miterlimit="4"></path></g><path fill="#00d8ff" d="M 183.09375 104.496094 L 172.496094 88.496094 C 177.851562 88.023438 182.679688 84.144531 182.679688 77.058594 C 182.679688 69.851562 177.558594 65.234375 170.375 65.234375 L 154.601562 65.234375 L 154.601562 104.46875 L 159.488281 104.46875 L 159.488281 88.878906 L 167.320312 88.878906 L 177.324219 104.46875 Z M 169.792969 84.617188 L 159.492188 84.617188 L 159.492188 69.617188 L 169.792969 69.617188 C 174.445312 69.617188 177.621094 72.675781 177.621094 77.085938 C 177.621094 81.5 174.441406 84.621094 169.792969 84.621094 Z M 201.28125 105.203125 C 205.933594 105.203125 209.757812 103.671875 212.585938 100.851562 L 210.464844 97.964844 C 208.226562 100.261719 204.933594 101.554688 201.695312 101.554688 C 195.574219 101.554688 191.804688 97.082031 191.453125 91.734375 L 214.464844 91.734375 L 214.464844 90.613281 C 214.464844 82.085938 209.402344 75.378906 200.808594 75.378906 C 192.683594 75.378906 186.800781 82.027344 186.800781 90.261719 C 186.800781 99.144531 192.863281 105.179688 201.28125 105.179688 Z M 210.113281 88.496094 L 191.457031 88.496094 C 191.691406 84.144531 194.691406 79.023438 200.753906 79.023438 C 207.230469 79.023438 210.054688 84.257812 210.113281 88.496094 Z M 243.785156 104.496094 L 243.785156 84.964844 C 243.785156 78.085938 238.785156 75.378906 232.777344 75.378906 C 228.125 75.378906 224.480469 76.90625 221.417969 80.082031 L 223.480469 83.140625 C 226.007812 80.4375 228.777344 79.199219 232.191406 79.199219 C 236.3125 79.199219 239.375 81.375 239.375 85.199219 L 239.375 90.316406 C 237.078125 87.667969 233.839844 86.433594 229.953125 86.433594 C 225.128906 86.433594 220.003906 89.433594 220.003906 95.785156 C 220.003906 101.960938 225.125 105.199219 229.953125 105.199219 C 233.78125 105.199219 237.019531 103.847656 239.375 101.257812 L 239.375 104.492188 Z M 231.542969 102.023438 C 227.425781 102.023438 224.539062 99.4375 224.539062 95.847656 C 224.539062 92.199219 227.425781 89.613281 231.542969 89.613281 C 234.664062 89.613281 237.664062 90.789062 239.375 93.144531 L 239.375 98.496094 C 237.667969 100.847656 234.664062 102.027344 231.542969 102.027344 Z M 265.128906 105.203125 C 270.308594 105.203125 273.371094 103.082031 275.550781 100.261719 L 272.605469 97.554688 C 270.722656 100.085938 268.308594 101.261719 265.390625 101.261719 C 259.328125 101.261719 255.5625 96.554688 255.5625 90.261719 C 255.5625 83.96875 259.332031 79.324219 265.390625 79.324219 C 268.335938 79.324219 270.746094 80.441406 272.605469 83.027344 L 275.550781 80.320312 C 273.371094 77.496094 270.308594 75.382812 265.128906 75.382812 C 256.652344 75.382812 250.945312 81.855469 250.945312 90.265625 C 250.945312 98.734375 256.652344 105.179688 265.128906 105.179688 Z M 288.914062 105.203125 C 291.5 105.203125 293.09375 104.4375 294.210938 103.378906 L 292.917969 100.085938 C 292.328125 100.730469 291.175781 101.261719 289.917969 101.261719 C 287.976562 101.261719 287.03125 99.730469 287.03125 97.613281 L 287.03125 79.964844 L 292.800781 79.964844 L 292.800781 76.085938 L 287.03125 76.085938 L 287.03125 68.320312 L 282.613281 68.320312 L 282.613281 76.085938 L 277.90625 76.085938 L 277.90625 79.96875 L 282.613281 79.96875 L 282.613281 98.558594 C 282.613281 102.792969 284.734375 105.207031 288.914062 105.207031 Z M 288.914062 105.203125 " fill-opacity="1" fill-rule="evenodd"></path></svg>